<svg width="210" height="41" viewBox="0 0 210 41" fill="none" xmlns="http://www.w3.org/2000/svg">
<g clip-path="url(#clip0_5380_13579)">
<mask id="mask0_5380_13579" style="mask-type:luminance" maskUnits="userSpaceOnUse" x="0" y="0" width="210" height="41">
<path d="M0 1.7494e-05H210V41H0V1.7494e-05Z" fill="white"/>
</mask>
<g mask="url(#mask0_5380_13579)">
<path d="M189.134 10.9295C189.818 10.568 190.616 10.3873 191.523 10.3873C192.672 10.3873 193.644 10.6728 194.441 11.2435C195.257 11.7952 195.767 12.5942 195.97 13.6404H201.112C200.963 12.1947 200.444 10.9391 199.555 9.87361C198.684 8.78922 197.554 7.94266 196.165 7.33393C194.793 6.72519 193.246 6.42075 191.523 6.42075C189.615 6.42075 187.929 6.79166 186.465 7.53375C185.001 8.25663 183.862 9.26488 183.047 10.5585C182.231 11.8332 181.824 13.3171 181.824 15.0102C181.824 16.7034 182.231 18.1967 183.047 19.4905C183.862 20.7841 185.001 21.7923 186.465 22.5154C187.929 23.2382 189.615 23.5998 191.523 23.5998C193.246 23.5998 194.793 23.2953 196.165 22.6866C197.554 22.0777 198.684 21.2312 199.555 20.1468C200.444 19.0624 200.963 17.8163 201.112 16.4085H195.97C195.767 17.3788 195.267 18.1587 194.469 18.7485C193.672 19.3193 192.69 19.6046 191.523 19.6046C190.616 19.6046 189.818 19.4239 189.134 19.0624C188.466 18.701 187.948 18.1778 187.576 17.4929C187.206 16.8081 187.02 15.9804 187.02 15.0102C187.02 14.0399 187.206 13.2125 187.576 12.5276C187.948 11.8236 188.466 11.291 189.134 10.9295Z" fill="#2D2D2D"/>
</g>
<mask id="mask1_5380_13579" style="mask-type:luminance" maskUnits="userSpaceOnUse" x="0" y="0" width="210" height="41">
<path d="M0 -2.82824e-05H210V41H0V-2.82824e-05Z" fill="white"/>
</mask>
<g mask="url(#mask1_5380_13579)">
<path d="M164.917 4.0522C166.047 4.98444 167.538 5.45056 169.391 5.45056C171.263 5.45056 172.763 4.98444 173.894 4.0522C175.024 3.11996 175.719 1.76928 175.978 1.3731e-05H172.003C171.873 0.779967 171.577 1.3793 171.114 1.79775C170.67 2.21633 170.096 2.42555 169.391 2.42555C168.705 2.42555 168.131 2.21633 167.668 1.79775C167.224 1.3793 166.926 0.779967 166.779 1.3731e-05H162.805C163.082 1.76928 163.786 3.11996 164.917 4.0522Z" fill="#2D2D2D"/>
</g>
<mask id="mask2_5380_13579" style="mask-type:luminance" maskUnits="userSpaceOnUse" x="0" y="0" width="210" height="41">
<path d="M0 1.7494e-05H210V41H0V1.7494e-05Z" fill="white"/>
</mask>
<g mask="url(#mask2_5380_13579)">
<path d="M174.198 23.1431H179.285V6.87738H172.642L164.888 18.2368V6.87738H159.83V23.1431H166.251L174.198 11.5339V23.1431Z" fill="#2D2D2D"/>
</g>
<mask id="mask3_5380_13579" style="mask-type:luminance" maskUnits="userSpaceOnUse" x="0" y="0" width="210" height="41">
<path d="M0 1.7494e-05H210V41H0V1.7494e-05Z" fill="white"/>
</mask>
<g mask="url(#mask3_5380_13579)">
<path d="M145.786 19.519C144.97 19.519 144.248 19.3288 143.618 18.9483C143.006 18.5488 142.525 18.0162 142.172 17.3502C141.82 16.6653 141.644 15.8854 141.644 15.0102C141.644 14.1352 141.82 13.3646 142.172 12.6988C142.525 12.014 143.006 11.4812 143.618 11.1008C144.248 10.7013 144.97 10.5015 145.786 10.5015C146.6 10.5015 147.37 10.7013 148.093 11.1008C148.833 11.4812 149.482 12.014 150.037 12.6988C150.593 13.3646 151.011 14.1352 151.288 15.0102C151.011 15.8854 150.593 16.6653 150.037 17.3502C149.482 18.0162 148.833 18.5488 148.093 18.9483C147.37 19.3288 146.6 19.519 145.786 19.519ZM151.134 19.7L151.539 23.1432H156.903L155.93 15.0102L156.903 6.87738H151.539L151.136 10.3231C150.374 9.12189 149.425 8.18066 148.286 7.50518C147.102 6.78217 145.767 6.42079 144.285 6.42079C142.728 6.42079 141.358 6.78217 140.172 7.50518C139.004 8.22806 138.087 9.23631 137.42 10.5301C136.753 11.8046 136.42 13.298 136.42 15.0102C136.42 16.7224 136.753 18.2254 137.42 19.519C138.087 20.7937 139.004 21.7924 140.172 22.5154C141.358 23.2383 142.728 23.5998 144.285 23.5998C145.767 23.5998 147.102 23.2478 148.286 22.5439C149.424 21.8506 150.372 20.9007 151.134 19.7Z" fill="#2D2D2D"/>
</g>
<mask id="mask4_5380_13579" style="mask-type:luminance" maskUnits="userSpaceOnUse" x="0" y="0" width="210" height="41">
<path d="M0 1.7494e-05H210V41H0V1.7494e-05Z" fill="white"/>
</mask>
<g mask="url(#mask4_5380_13579)">
<path d="M128.786 17.3502C128.434 18.0162 127.943 18.5488 127.313 18.9483C126.702 19.3288 125.988 19.519 125.173 19.519C124.358 19.519 123.58 19.3288 122.838 18.9483C122.116 18.5488 121.477 18.0162 120.921 17.3502C120.383 16.6653 119.967 15.8854 119.67 15.0102C119.967 14.1352 120.383 13.3646 120.921 12.6988C121.477 12.014 122.116 11.4812 122.838 11.1008C123.58 10.7013 124.358 10.5015 125.173 10.5015C125.988 10.5015 126.702 10.7013 127.313 11.1008C127.943 11.4812 128.434 12.014 128.786 12.6988C129.138 13.3646 129.314 14.1352 129.314 15.0102C129.314 15.8854 129.138 16.6653 128.786 17.3502ZM130.759 7.50518C129.592 6.78217 128.23 6.42079 126.674 6.42079C125.21 6.42079 123.876 6.78217 122.672 7.50518C121.541 8.17657 120.597 9.11072 119.837 10.3016V6.87738H114.695V27.8517H119.837V19.7157C120.614 20.9089 121.557 21.8537 122.672 22.5439C123.857 23.2478 125.191 23.5998 126.674 23.5998C128.23 23.5998 129.592 23.2383 130.759 22.5154C131.945 21.7924 132.871 20.7937 133.538 19.519C134.206 18.2254 134.539 16.7224 134.539 15.0102C134.539 13.298 134.206 11.8046 133.538 10.5301C132.871 9.23631 131.945 8.22806 130.759 7.50518Z" fill="#2D2D2D"/>
</g>
<mask id="mask5_5380_13579" style="mask-type:luminance" maskUnits="userSpaceOnUse" x="0" y="0" width="210" height="41">
<path d="M0 -2.82824e-05H210V41H0V-2.82824e-05Z" fill="white"/>
</mask>
<g mask="url(#mask5_5380_13579)">
<path d="M94.7175 6.5063H105.918V23.143H111.143V1.74063H89.4648V23.143H94.7175V6.5063Z" fill="#2D2D2D"/>
</g>
<mask id="mask6_5380_13579" style="mask-type:luminance" maskUnits="userSpaceOnUse" x="0" y="0" width="210" height="41">
<path d="M0 2.23517e-06H210V41H0V2.23517e-06Z" fill="white"/>
</mask>
<g mask="url(#mask6_5380_13579)">
<path d="M83.0065 17.6356C82.1357 17.6356 81.4223 17.9114 80.8665 18.4631C80.3292 18.9958 80.0605 19.6807 80.0605 20.5177C80.0605 21.3549 80.3292 22.0493 80.8665 22.6009C81.4223 23.1526 82.1357 23.4284 83.0065 23.4284C83.8589 23.4284 84.5536 23.1526 85.0909 22.6009C85.6467 22.0493 85.9246 21.3549 85.9246 20.5177C85.9246 19.6807 85.6467 18.9958 85.0909 18.4631C84.5536 17.9114 83.8589 17.6356 83.0065 17.6356Z" fill="#2D2D2D"/>
</g>
<mask id="mask7_5380_13579" style="mask-type:luminance" maskUnits="userSpaceOnUse" x="0" y="0" width="210" height="41">
<path d="M0 -2.82824e-05H210V41H0V-2.82824e-05Z" fill="white"/>
</mask>
<g mask="url(#mask7_5380_13579)">
<path d="M83.0065 7.73339C82.1357 7.73339 81.4223 8.00922 80.8665 8.56101C80.3292 9.09361 80.0605 9.77848 80.0605 10.6155C80.0605 11.4527 80.3292 12.1471 80.8665 12.6987C81.4223 13.2315 82.1357 13.4978 83.0065 13.4978C83.8589 13.4978 84.5536 13.2315 85.0909 12.6987C85.6467 12.1471 85.9246 11.4527 85.9246 10.6155C85.9246 9.77848 85.6467 9.09361 85.0909 8.56101C84.5536 8.00922 83.8589 7.73339 83.0065 7.73339Z" fill="#2D2D2D"/>
</g>
<mask id="mask8_5380_13579" style="mask-type:luminance" maskUnits="userSpaceOnUse" x="0" y="0" width="210" height="41">
<path d="M0 1.7494e-05H210V41H0V1.7494e-05Z" fill="white"/>
</mask>
<g mask="url(#mask8_5380_13579)">
<path d="M63.1921 22.5154C64.6559 23.2383 66.3419 23.5998 68.2503 23.5998C69.9734 23.5998 71.5205 23.2954 72.8915 22.6866C74.2811 22.0778 75.4114 21.2312 76.2822 20.1468C77.1715 19.0624 77.6904 17.8163 77.8385 16.4086H72.6971C72.4933 17.3788 71.993 18.1588 71.1963 18.7486C70.3995 19.3193 69.4176 19.6047 68.2503 19.6047C67.3424 19.6047 66.5458 19.4239 65.8602 19.0624C65.1932 18.701 64.6743 18.1778 64.3038 17.493C63.9333 16.8081 63.748 15.9805 63.748 15.0102C63.748 14.04 63.9333 13.2125 64.3038 12.5276C64.6743 11.8237 65.1932 11.2909 65.8602 10.9296C66.5458 10.5681 67.3424 10.3873 68.2503 10.3873C69.399 10.3873 70.3718 10.6727 71.1684 11.2434C71.9837 11.7951 72.4933 12.5941 72.6971 13.6405H77.8385C77.6904 12.1946 77.1715 10.939 76.2822 9.87365C75.4114 8.78926 74.2811 7.9427 72.8915 7.33396C71.5205 6.72509 69.9734 6.42079 68.2503 6.42079C66.3419 6.42079 64.6559 6.7917 63.1921 7.53365C61.7284 8.25653 60.589 9.26491 59.7736 10.5585C58.9584 11.8332 58.5508 13.3171 58.5508 15.0102C58.5508 16.7035 58.9584 18.1968 59.7736 19.4905C60.589 20.7841 61.7284 21.7924 63.1921 22.5154Z" fill="#2D2D2D"/>
</g>
<mask id="mask9_5380_13579" style="mask-type:luminance" maskUnits="userSpaceOnUse" x="0" y="0" width="210" height="41">
<path d="M0 -2.82824e-05H210V41H0V-2.82824e-05Z" fill="white"/>
</mask>
<g mask="url(#mask9_5380_13579)">
<path d="M41.6435 4.05219C42.7736 4.98443 44.2652 5.45055 46.1179 5.45055C47.9894 5.45055 49.4901 4.98443 50.6203 4.05219C51.7505 3.11995 52.4453 1.76927 52.7047 2.28687e-06H48.7304C48.6008 0.779956 48.3043 1.37929 47.841 1.79774C47.3964 2.21632 46.8221 2.42554 46.1179 2.42554C45.4325 2.42554 44.8581 2.21632 44.3948 1.79774C43.9501 1.37929 43.6538 0.779956 43.5055 2.28687e-06H39.5312C39.8092 1.76927 40.5132 3.11995 41.6435 4.05219Z" fill="#2D2D2D"/>
</g>
<mask id="mask10_5380_13579" style="mask-type:luminance" maskUnits="userSpaceOnUse" x="0" y="0" width="210" height="41">
<path d="M0 2.23517e-06H210V41H0V2.23517e-06Z" fill="white"/>
</mask>
<g mask="url(#mask10_5380_13579)">
<path d="M50.9253 11.5335V23.1431H56.0112V6.8773H49.3689L41.6148 18.2369V6.8773H36.5566V23.1431H42.9767L50.9253 11.5335Z" fill="#2D2D2D"/>
</g>
<mask id="mask11_5380_13579" style="mask-type:luminance" maskUnits="userSpaceOnUse" x="0" y="0" width="210" height="41">
<path d="M0 2.23517e-06H210V41H0V2.23517e-06Z" fill="white"/>
</mask>
<g mask="url(#mask11_5380_13579)">
<path d="M18.0567 14.4966L21.7639 5.8679L25.4836 14.4966H18.0567ZM25.181 1.74066H18.3719L8.75586 23.1431H14.342L16.1933 18.8341H27.3534L29.2109 23.1431H34.797L25.181 1.74066Z" fill="#2D2D2D"/>
</g>
<mask id="mask12_5380_13579" style="mask-type:luminance" maskUnits="userSpaceOnUse" x="0" y="0" width="210" height="41">
<path d="M0 -5.39422e-06H210V41H0V-5.39422e-06Z" fill="white"/>
</mask>
<g mask="url(#mask12_5380_13579)">
<path d="M209.066 38.3267C208.927 38.4467 208.734 38.5068 208.488 38.5068H206.977V37.0414H208.488C208.734 37.0414 208.927 37.1128 209.066 37.2557C209.205 37.3964 209.274 37.5899 209.274 37.8362C209.274 38.0431 209.205 38.2067 209.066 38.3267ZM206.977 35.0792H208.199C208.484 35.0792 208.709 35.1371 208.872 35.2531C209.036 35.3669 209.117 35.5243 209.117 35.725C209.117 35.8657 209.079 35.9878 209.005 36.0913C208.932 36.1928 208.827 36.2714 208.691 36.3272C208.554 36.3812 208.39 36.408 208.199 36.408H206.977V35.0792ZM209.84 37.2649C209.733 37.0911 209.598 36.9545 209.435 36.855C209.273 36.7557 209.107 36.6936 208.936 36.6688C209.197 36.6129 209.412 36.5063 209.579 36.349C209.747 36.1897 209.83 35.965 209.83 35.6753C209.83 35.2945 209.683 34.9881 209.39 34.7563C209.095 34.5245 208.697 34.4085 208.199 34.4085H206.299V39.1773H208.488C208.802 39.1773 209.073 39.1215 209.298 39.0098C209.524 38.898 209.698 38.7458 209.818 38.5533C209.939 38.3609 210 38.1425 210 37.8983C210 37.6478 209.947 37.4367 209.84 37.2649Z" fill="#2D2D2D"/>
</g>
<mask id="mask13_5380_13579" style="mask-type:luminance" maskUnits="userSpaceOnUse" x="0" y="0" width="210" height="41">
<path d="M0 -5.39422e-06H210V41H0V-5.39422e-06Z" fill="white"/>
</mask>
<g mask="url(#mask13_5380_13579)">
<path d="M201.484 35.0916H203.021V39.1773H203.734V35.0916H205.259V34.4085H201.484V35.0916Z" fill="#2D2D2D"/>
</g>
<mask id="mask14_5380_13579" style="mask-type:luminance" maskUnits="userSpaceOnUse" x="0" y="0" width="210" height="41">
<path d="M0 -5.39422e-06H210V41H0V-5.39422e-06Z" fill="white"/>
</mask>
<g mask="url(#mask14_5380_13579)">
<path d="M198.25 35.2281C198.46 35.079 198.704 35.0045 198.982 35.0045C199.297 35.0045 199.546 35.0893 199.732 35.259C199.919 35.4267 200.04 35.6192 200.094 35.8366H200.808C200.768 35.5386 200.664 35.2777 200.497 35.0542C200.329 34.8307 200.115 34.6568 199.853 34.5326C199.591 34.4084 199.297 34.3463 198.969 34.3463C198.55 34.3463 198.184 34.4518 197.869 34.663C197.556 34.8721 197.312 35.1629 197.137 35.5354C196.965 35.9059 196.877 36.3334 196.877 36.8177C196.877 37.2937 196.962 37.717 197.132 38.0875C197.3 38.458 197.543 38.7488 197.857 38.9599C198.172 39.1711 198.546 39.2766 198.982 39.2766C199.325 39.2766 199.624 39.2114 199.883 39.081C200.143 38.9485 200.351 38.7705 200.509 38.5469C200.668 38.3214 200.768 38.0679 200.808 37.7863H200.094C200.05 37.9601 199.976 38.1092 199.871 38.2334C199.766 38.3576 199.638 38.4528 199.486 38.519C199.335 38.5852 199.167 38.6183 198.982 38.6183C198.7 38.6183 198.453 38.5429 198.243 38.3918C198.036 38.2406 197.875 38.0285 197.76 37.7553C197.648 37.482 197.591 37.1613 197.591 36.7928C197.591 36.4327 197.648 36.1191 197.763 35.8521C197.88 35.5831 198.043 35.375 198.25 35.2281Z" fill="#2D2D2D"/>
</g>
<mask id="mask15_5380_13579" style="mask-type:luminance" maskUnits="userSpaceOnUse" x="0" y="0" width="210" height="41">
<path d="M0 -5.39422e-06H210V41H0V-5.39422e-06Z" fill="white"/>
</mask>
<g mask="url(#mask15_5380_13579)">
<path d="M192.727 38.0969V34.4085H192.014V39.1773H192.848L195.073 35.489V39.1773H195.787V34.4085H194.964L192.727 38.0969Z" fill="#2D2D2D"/>
</g>
<mask id="mask16_5380_13579" style="mask-type:luminance" maskUnits="userSpaceOnUse" x="0" y="0" width="210" height="41">
<path d="M0 1.7494e-05H210V41H0V1.7494e-05Z" fill="white"/>
</mask>
<g mask="url(#mask16_5380_13579)">
<path d="M193.9 33.9615C194.287 33.9615 194.594 33.855 194.819 33.6418C195.045 33.4285 195.158 33.1543 195.158 32.8189H194.493C194.493 32.9805 194.447 33.1223 194.354 33.2443C194.262 33.3665 194.111 33.4275 193.9 33.4275C193.688 33.4275 193.538 33.3665 193.449 33.2443C193.363 33.1223 193.319 32.9805 193.319 32.8189H192.654C192.654 33.1543 192.766 33.4285 192.99 33.6418C193.215 33.855 193.519 33.9615 193.9 33.9615Z" fill="#2D2D2D"/>
</g>
<mask id="mask17_5380_13579" style="mask-type:luminance" maskUnits="userSpaceOnUse" x="0" y="0" width="210" height="41">
<path d="M0 -1.30236e-05H210V41H0V-1.30236e-05Z" fill="white"/>
</mask>
<g mask="url(#mask17_5380_13579)">
<path d="M190.062 37.7056C189.962 37.9788 189.811 38.1992 189.605 38.3669C189.4 38.5345 189.137 38.6183 188.819 38.6183C188.5 38.6183 188.239 38.5345 188.033 38.3669C187.828 38.1992 187.675 37.9788 187.576 37.7056C187.478 37.4325 187.429 37.1365 187.429 36.8177C187.429 36.4989 187.478 36.2019 187.576 35.9266C187.675 35.6513 187.828 35.4288 188.033 35.259C188.239 35.0893 188.5 35.0045 188.819 35.0045C189.137 35.0045 189.4 35.0893 189.605 35.259C189.811 35.4288 189.962 35.6513 190.062 35.9266C190.16 36.2019 190.21 36.4989 190.21 36.8177C190.21 37.1365 190.16 37.4325 190.062 37.7056ZM189.92 34.6537C189.605 34.4489 189.238 34.3463 188.819 34.3463C188.4 34.3463 188.032 34.4489 187.715 34.6537C187.401 34.8586 187.155 35.1463 186.978 35.5168C186.802 35.8873 186.715 36.321 186.715 36.8177C186.715 37.3103 186.802 37.7408 186.978 38.1092C187.155 38.4776 187.401 38.7643 187.715 38.9692C188.032 39.1741 188.4 39.2766 188.819 39.2766C189.238 39.2766 189.605 39.1741 189.92 38.9692C190.236 38.7643 190.482 38.4776 190.657 38.1092C190.835 37.7408 190.924 37.3103 190.924 36.8177C190.924 36.321 190.835 35.8873 190.657 35.5168C190.482 35.1463 190.236 34.8586 189.92 34.6537Z" fill="#2D2D2D"/>
</g>
<mask id="mask18_5380_13579" style="mask-type:luminance" maskUnits="userSpaceOnUse" x="0" y="0" width="210" height="41">
<path d="M0 -5.39422e-06H210V41H0V-5.39422e-06Z" fill="white"/>
</mask>
<g mask="url(#mask18_5380_13579)">
<path d="M184.978 37.7181C184.877 37.9933 184.726 38.2127 184.524 38.3763C184.325 38.5377 184.076 38.6183 183.777 38.6183C183.492 38.6183 183.249 38.5418 183.051 38.3887C182.854 38.2334 182.704 38.0191 182.602 37.746C182.498 37.4707 182.447 37.153 182.447 36.7928C182.447 36.4369 182.497 36.1254 182.598 35.8584C182.699 35.5892 182.848 35.3801 183.046 35.2311C183.244 35.0801 183.488 35.0045 183.777 35.0045C184.08 35.0045 184.33 35.0842 184.531 35.2437C184.732 35.4009 184.882 35.6151 184.982 35.8863C185.082 36.1553 185.133 36.4576 185.133 36.7928C185.133 37.1323 185.081 37.4406 184.978 37.7181ZM184.897 34.6475C184.598 34.4467 184.253 34.3463 183.862 34.3463C183.56 34.3463 183.319 34.3981 183.143 34.5016C182.968 34.6031 182.833 34.7188 182.737 34.8493C182.644 34.9776 182.573 35.0832 182.519 35.166H182.435V34.4084H181.746V40.9655H182.46V38.4445H182.519C182.573 38.5314 182.647 38.6412 182.744 38.7736C182.841 38.904 182.979 39.021 183.158 39.1245C183.337 39.2258 183.575 39.2766 183.874 39.2766C184.261 39.2766 184.604 39.1763 184.899 38.9755C185.195 38.7727 185.427 38.487 185.595 38.1186C185.762 37.7481 185.845 37.3103 185.845 36.8052C185.845 36.3043 185.762 35.8697 185.595 35.5012C185.427 35.1329 185.195 34.8482 184.897 34.6475Z" fill="#2D2D2D"/>
</g>
<mask id="mask19_5380_13579" style="mask-type:luminance" maskUnits="userSpaceOnUse" x="0" y="0" width="210" height="41">
<path d="M0 -5.39422e-06H210V41H0V-5.39422e-06Z" fill="white"/>
</mask>
<g mask="url(#mask19_5380_13579)">
<path d="M176.93 35.0916H178.466V39.1773H179.18V35.0916H180.704V34.4085H176.93V35.0916Z" fill="#2D2D2D"/>
</g>
<mask id="mask20_5380_13579" style="mask-type:luminance" maskUnits="userSpaceOnUse" x="0" y="0" width="210" height="41">
<path d="M0 -5.39422e-06H210V41H0V-5.39422e-06Z" fill="white"/>
</mask>
<g mask="url(#mask20_5380_13579)">
<path d="M173.695 35.2281C173.905 35.079 174.148 35.0045 174.426 35.0045C174.741 35.0045 174.991 35.0893 175.176 35.2591C175.364 35.4267 175.485 35.6192 175.539 35.8366H176.253C176.212 35.5386 176.108 35.2777 175.941 35.0542C175.774 34.8307 175.559 34.6569 175.298 34.5326C175.035 34.4084 174.741 34.3463 174.414 34.3463C173.995 34.3463 173.628 34.4519 173.313 34.663C173.001 34.8721 172.757 35.1629 172.582 35.5354C172.408 35.9059 172.322 36.3334 172.322 36.8177C172.322 37.2937 172.407 37.717 172.576 38.0875C172.745 38.458 172.987 38.7488 173.301 38.9599C173.616 39.1711 173.991 39.2766 174.426 39.2766C174.769 39.2766 175.07 39.2114 175.327 39.081C175.587 38.9485 175.797 38.7705 175.953 38.547C176.112 38.3214 176.212 38.0679 176.253 37.7863H175.539C175.494 37.9601 175.42 38.1092 175.315 38.2334C175.21 38.3576 175.083 38.4528 174.932 38.519C174.78 38.5852 174.612 38.6183 174.426 38.6183C174.144 38.6183 173.898 38.5429 173.689 38.3918C173.48 38.2406 173.32 38.0285 173.204 37.7553C173.092 37.482 173.036 37.1613 173.036 36.7928C173.036 36.4327 173.093 36.1191 173.208 35.8521C173.325 35.5831 173.487 35.375 173.695 35.2281Z" fill="#2D2D2D"/>
</g>
<mask id="mask21_5380_13579" style="mask-type:luminance" maskUnits="userSpaceOnUse" x="0" y="0" width="210" height="41">
<path d="M0 -5.39422e-06H210V41H0V-5.39422e-06Z" fill="white"/>
</mask>
<g mask="url(#mask21_5380_13579)">
<path d="M169.707 38.2087H169.66L168.377 34.4085H167.604L169.32 39.2023L169.187 39.5748C169.101 39.817 169.006 39.9919 168.901 40.0995C168.797 40.2092 168.679 40.2702 168.547 40.2827C168.414 40.2951 168.26 40.2785 168.088 40.233L167.906 40.8788C167.942 40.8974 168.007 40.916 168.102 40.9346C168.197 40.9553 168.305 40.9657 168.426 40.9657C168.641 40.9657 168.835 40.9263 169.006 40.8477C169.18 40.7691 169.332 40.648 169.463 40.4844C169.593 40.323 169.704 40.1191 169.792 39.8728L171.764 34.4085H170.99L169.707 38.2087Z" fill="#2D2D2D"/>
</g>
<mask id="mask22_5380_13579" style="mask-type:luminance" maskUnits="userSpaceOnUse" x="0" y="0" width="210" height="41">
<path d="M0 -5.39422e-06H210V41H0V-5.39422e-06Z" fill="white"/>
</mask>
<g mask="url(#mask22_5380_13579)">
<path d="M163.73 34.4085L162.617 36.3583L161.504 34.4085H160.682L162.157 36.7929L160.682 39.1773H161.504L162.617 37.327L163.73 39.1773H164.553L163.052 36.7929L164.553 34.4085H163.73Z" fill="#2D2D2D"/>
</g>
<mask id="mask23_5380_13579" style="mask-type:luminance" maskUnits="userSpaceOnUse" x="0" y="0" width="210" height="41">
<path d="M0 2.23517e-06H210V41H0V2.23517e-06Z" fill="white"/>
</mask>
<g mask="url(#mask23_5380_13579)">
<path d="M158.953 39.1773H159.667V34.4085H158.953V39.1773Z" fill="#2D2D2D"/>
</g>
<mask id="mask24_5380_13579" style="mask-type:luminance" maskUnits="userSpaceOnUse" x="0" y="0" width="210" height="41">
<path d="M0 -1.30236e-05H210V41H0V-1.30236e-05Z" fill="white"/>
</mask>
<g mask="url(#mask24_5380_13579)">
<path d="M157.229 38.2646C157.047 38.4178 156.816 38.4944 156.533 38.4944H155.3V36.8179H156.533C156.816 36.8179 157.047 36.8975 157.229 37.0569C157.41 37.2163 157.5 37.4222 157.5 37.6748C157.5 37.9148 157.41 38.1115 157.229 38.2646ZM156.533 36.1348H155.3V34.4085H154.586V39.1773H156.533C156.896 39.1773 157.202 39.1091 157.453 38.9725C157.702 38.8338 157.892 38.6486 158.02 38.4167C158.15 38.1828 158.214 37.9231 158.214 37.6375C158.214 37.2028 158.071 36.8437 157.782 36.5601C157.494 36.2766 157.077 36.1348 156.533 36.1348Z" fill="#2D2D2D"/>
</g>
<mask id="mask25_5380_13579" style="mask-type:luminance" maskUnits="userSpaceOnUse" x="0" y="0" width="210" height="41">
<path d="M0 -1.30236e-05H210V41H0V-1.30236e-05Z" fill="white"/>
</mask>
<g mask="url(#mask25_5380_13579)">
<path d="M152.571 36.4577H150.345V34.4085H149.631V39.1773H150.345V37.1407H152.571V39.1773H153.284V34.4085H152.571V36.4577Z" fill="#2D2D2D"/>
</g>
<mask id="mask26_5380_13579" style="mask-type:luminance" maskUnits="userSpaceOnUse" x="0" y="0" width="210" height="41">
<path d="M0 -1.30236e-05H210V41H0V-1.30236e-05Z" fill="white"/>
</mask>
<g mask="url(#mask26_5380_13579)">
<path d="M147.559 38.2646C147.378 38.4178 147.146 38.4944 146.863 38.4944H145.63V36.8179H146.863C147.146 36.8179 147.378 36.8975 147.559 37.0569C147.74 37.2163 147.832 37.4222 147.832 37.6748C147.832 37.9148 147.74 38.1115 147.559 38.2646ZM146.863 36.1348H145.63V34.4085H144.916V39.1773H146.863C147.227 39.1773 147.533 39.1091 147.783 38.9725C148.034 38.8338 148.222 38.6486 148.352 38.4167C148.481 38.1828 148.546 37.9231 148.546 37.6375C148.546 37.2028 148.401 36.8437 148.113 36.5601C147.824 36.2766 147.409 36.1348 146.863 36.1348Z" fill="#2D2D2D"/>
</g>
<mask id="mask27_5380_13579" style="mask-type:luminance" maskUnits="userSpaceOnUse" x="0" y="0" width="210" height="41">
<path d="M0 -5.39422e-06H210V41H0V-5.39422e-06Z" fill="white"/>
</mask>
<g mask="url(#mask27_5380_13579)">
<path d="M140.427 36.5198C140.412 36.9192 140.388 37.2483 140.357 37.5071C140.326 37.7637 140.282 37.9645 140.224 38.1094C140.167 38.2522 140.093 38.3526 140 38.4106C139.907 38.4664 139.792 38.4944 139.652 38.4944H139.482V39.1773H139.725C139.983 39.1773 140.197 39.1267 140.369 39.0253C140.54 38.9238 140.678 38.7728 140.78 38.572C140.885 38.3712 140.963 38.1228 141.013 37.8268C141.065 37.5288 141.1 37.1841 141.115 36.7929L141.188 35.0916H142.894V39.1773H143.607V34.4085H140.511L140.427 36.5198Z" fill="#2D2D2D"/>
</g>
<mask id="mask28_5380_13579" style="mask-type:luminance" maskUnits="userSpaceOnUse" x="0" y="0" width="210" height="41">
<path d="M0 -5.39422e-06H210V41H0V-5.39422e-06Z" fill="white"/>
</mask>
<g mask="url(#mask28_5380_13579)">
<path d="M135.526 38.0969V34.4085H134.812V39.1773H135.647L137.872 35.489V39.1773H138.585V34.4085H137.763L135.526 38.0969Z" fill="#2D2D2D"/>
</g>
<mask id="mask29_5380_13579" style="mask-type:luminance" maskUnits="userSpaceOnUse" x="0" y="0" width="210" height="41">
<path d="M0 -1.30236e-05H210V41H0V-1.30236e-05Z" fill="white"/>
</mask>
<g mask="url(#mask29_5380_13579)">
<path d="M132.844 37.7896C132.736 38.0525 132.579 38.2563 132.375 38.4012C132.174 38.5461 131.933 38.6185 131.653 38.6185C131.229 38.6185 130.896 38.4581 130.652 38.1374C130.408 37.8164 130.286 37.389 130.286 36.855C130.29 36.5942 130.323 36.3625 130.386 36.1595C130.45 35.9567 130.541 35.785 130.658 35.6443C130.775 35.5035 130.916 35.3969 131.081 35.3244C131.246 35.252 131.433 35.2157 131.641 35.2157C131.925 35.2157 132.169 35.2799 132.372 35.4083C132.576 35.5366 132.732 35.7228 132.84 35.9671C132.952 36.2113 133.007 36.5073 133.007 36.855C133.007 37.2132 132.953 37.5247 132.844 37.7896ZM132.778 34.8184C132.487 34.6445 132.161 34.5575 131.798 34.5575C131.479 34.5575 131.181 34.628 130.903 34.7687C130.625 34.9094 130.407 35.1288 130.25 35.4269H130.189C130.221 35.0171 130.295 34.6714 130.41 34.3899C130.525 34.1085 130.688 33.8932 130.9 33.7442C131.111 33.5951 131.378 33.5144 131.701 33.502C131.987 33.4895 132.247 33.4771 132.481 33.4647C132.714 33.4523 132.925 33.4181 133.11 33.3623C133.295 33.3064 133.459 33.2081 133.6 33.0674L133.237 32.6202C133.136 32.7072 133.013 32.762 132.868 32.7847C132.724 32.8076 132.553 32.8169 132.357 32.8128C132.162 32.8086 131.939 32.8106 131.689 32.8189C130.981 32.8376 130.451 33.1212 130.098 33.6696C129.748 34.2181 129.572 35.0233 129.572 36.085V36.5942C129.572 37.1821 129.659 37.6757 129.832 38.0752C130.006 38.4726 130.249 38.7728 130.561 38.9756C130.874 39.1764 131.237 39.2768 131.653 39.2768C132.068 39.2768 132.43 39.1794 132.738 38.9849C133.049 38.7882 133.29 38.5088 133.461 38.1466C133.634 37.7844 133.721 37.3539 133.721 36.855C133.721 36.3542 133.636 35.933 133.466 35.5914C133.298 35.2499 133.067 34.9922 132.778 34.8184Z" fill="#2D2D2D"/>
</g>
<mask id="mask30_5380_13579" style="mask-type:luminance" maskUnits="userSpaceOnUse" x="0" y="0" width="210" height="41">
<path d="M0 -1.30236e-05H210V41H0V-1.30236e-05Z" fill="white"/>
</mask>
<g mask="url(#mask30_5380_13579)">
<path d="M127.839 37.7056C127.741 37.9788 127.588 38.1992 127.383 38.3669C127.177 38.5346 126.915 38.6183 126.597 38.6183C126.278 38.6183 126.016 38.5346 125.81 38.3669C125.605 38.1992 125.453 37.9788 125.354 37.7056C125.255 37.4325 125.206 37.1365 125.206 36.8177C125.206 36.4989 125.255 36.2019 125.354 35.9266C125.453 35.6513 125.605 35.4288 125.81 35.2591C126.016 35.0893 126.278 35.0045 126.597 35.0045C126.915 35.0045 127.177 35.0893 127.383 35.2591C127.588 35.4288 127.741 35.6513 127.839 35.9266C127.938 36.2019 127.988 36.4989 127.988 36.8177C127.988 37.1365 127.938 37.4325 127.839 37.7056ZM127.697 34.6537C127.383 34.4489 127.016 34.3463 126.597 34.3463C126.177 34.3463 125.809 34.4489 125.493 34.6537C125.179 34.8586 124.933 35.1463 124.755 35.5168C124.58 35.8873 124.492 36.321 124.492 36.8177C124.492 37.3103 124.58 37.7408 124.755 38.1092C124.933 38.4776 125.179 38.7643 125.493 38.9692C125.809 39.1741 126.177 39.2766 126.597 39.2766C127.016 39.2766 127.383 39.1741 127.697 38.9692C128.014 38.7643 128.26 38.4776 128.435 38.1092C128.612 37.7408 128.701 37.3103 128.701 36.8177C128.701 36.321 128.612 35.8873 128.435 35.5168C128.26 35.1463 128.014 34.8586 127.697 34.6537Z" fill="#2D2D2D"/>
</g>
<mask id="mask31_5380_13579" style="mask-type:luminance" maskUnits="userSpaceOnUse" x="0" y="0" width="210" height="41">
<path d="M0 -5.39422e-06H210V41H0V-5.39422e-06Z" fill="white"/>
</mask>
<g mask="url(#mask31_5380_13579)">
<path d="M122.69 34.4085H122.485L120.864 38.1839L119.268 34.4085H119.038H118.602H118.324V39.1773H119.038V35.462L120.574 39.1773H121.155L122.69 35.529V39.1773H123.404V34.4085H123.162H122.69Z" fill="#2D2D2D"/>
</g>
<mask id="mask32_5380_13579" style="mask-type:luminance" maskUnits="userSpaceOnUse" x="0" y="0" width="210" height="41">
<path d="M0 -1.30236e-05H210V41H0V-1.30236e-05Z" fill="white"/>
</mask>
<g mask="url(#mask32_5380_13579)">
<path d="M113.942 36.557H112.624C112.372 36.557 112.173 36.4918 112.028 36.3614C111.885 36.2311 111.813 36.0519 111.813 35.8243C111.813 35.5925 111.893 35.4104 112.052 35.2778C112.211 35.1454 112.43 35.0792 112.708 35.0792H113.942V36.557ZM111.847 34.5793C111.607 34.6932 111.422 34.8557 111.293 35.0667C111.164 35.2778 111.1 35.5304 111.1 35.8243C111.1 36.1162 111.161 36.3686 111.284 36.5818C111.407 36.7929 111.582 36.9554 111.81 37.0693C111.864 37.096 111.92 37.119 111.978 37.1395L110.846 39.1773H111.62L112.697 37.2401H113.942V39.1773H114.619V34.4085H112.708C112.376 34.4085 112.088 34.4655 111.847 34.5793Z" fill="#2D2D2D"/>
</g>
<mask id="mask33_5380_13579" style="mask-type:luminance" maskUnits="userSpaceOnUse" x="0" y="0" width="210" height="41">
<path d="M0 -5.39422e-06H210V41H0V-5.39422e-06Z" fill="white"/>
</mask>
<g mask="url(#mask33_5380_13579)">
<path d="M106.658 36.5198C106.644 36.9192 106.621 37.2483 106.589 37.5071C106.558 37.7637 106.514 37.9645 106.456 38.1094C106.399 38.2522 106.325 38.3526 106.232 38.4106C106.139 38.4664 106.023 38.4944 105.884 38.4944H105.715V39.1773H105.957C106.215 39.1773 106.429 39.1267 106.601 39.0253C106.772 38.9238 106.909 38.7728 107.012 38.572C107.117 38.3712 107.194 38.1228 107.245 37.8268C107.297 37.5288 107.331 37.1841 107.348 36.7929L107.42 35.0916H109.126V39.1773H109.839V34.4085H106.743L106.658 36.5198Z" fill="#2D2D2D"/>
</g>
<mask id="mask34_5380_13579" style="mask-type:luminance" maskUnits="userSpaceOnUse" x="0" y="0" width="210" height="41">
<path d="M0 -5.39422e-06H210V41H0V-5.39422e-06Z" fill="white"/>
</mask>
<g mask="url(#mask34_5380_13579)">
<path d="M103.751 38.4944H101.514C101.677 38.2729 101.796 37.9758 101.871 37.6033C101.945 37.2307 102.008 36.7951 102.058 36.2962L102.179 35.0916H103.751V38.4944ZM104.465 34.4085H101.514L101.357 36.2962C101.328 36.6295 101.296 36.914 101.26 37.1501C101.224 37.384 101.179 37.5826 101.127 37.7461C101.076 37.9076 101.017 38.0473 100.948 38.1653C100.88 38.2832 100.798 38.3929 100.704 38.4944H100.316V40.5434H101.03V39.1773H104.465V40.5434H105.179V38.4944H104.465V34.4085Z" fill="#2D2D2D"/>
</g>
<mask id="mask35_5380_13579" style="mask-type:luminance" maskUnits="userSpaceOnUse" x="0" y="0" width="210" height="41">
<path d="M0 -1.30236e-05H210V41H0V-1.30236e-05Z" fill="white"/>
</mask>
<g mask="url(#mask35_5380_13579)">
<path d="M94.674 38.2646C94.4926 38.4178 94.2607 38.4944 93.9786 38.4944H92.7448V36.8179H93.9786C94.2607 36.8179 94.4926 36.8975 94.674 37.0569C94.8554 37.2163 94.9462 37.4222 94.9462 37.6748C94.9462 37.9148 94.8554 38.1115 94.674 38.2646ZM93.9786 36.1348H92.7448V34.4085H92.0312V39.1773H93.9786C94.3414 39.1773 94.6478 39.1091 94.8978 38.9725C95.1477 38.8338 95.3371 38.6486 95.4662 38.4167C95.5951 38.1828 95.6598 37.9231 95.6598 37.6375C95.6598 37.2028 95.5156 36.8437 95.2273 36.5601C94.939 36.2766 94.5229 36.1348 93.9786 36.1348Z" fill="#2D2D2D"/>
</g>
<mask id="mask36_5380_13579" style="mask-type:luminance" maskUnits="userSpaceOnUse" x="0" y="0" width="210" height="41">
<path d="M0 2.23517e-06H210V41H0V2.23517e-06Z" fill="white"/>
</mask>
<g mask="url(#mask36_5380_13579)">
<path d="M96.3984 39.1773H97.112V34.4085H96.3984V39.1773Z" fill="#2D2D2D"/>
</g>
<mask id="mask37_5380_13579" style="mask-type:luminance" maskUnits="userSpaceOnUse" x="0" y="0" width="210" height="41">
<path d="M0 -5.39422e-06H210V41H0V-5.39422e-06Z" fill="white"/>
</mask>
<g mask="url(#mask37_5380_13579)">
<path d="M90.0761 37.7181C89.9753 37.9933 89.8241 38.2127 89.6226 38.3763C89.4229 38.5377 89.174 38.6183 88.8757 38.6183C88.5894 38.6183 88.3476 38.5418 88.1499 38.3887C87.9524 38.2334 87.8022 38.0191 87.6994 37.746C87.5966 37.4707 87.5453 37.153 87.5453 36.7928C87.5453 36.4369 87.5957 36.1254 87.6964 35.8584C87.7972 35.5892 87.9464 35.3801 88.1439 35.2311C88.3415 35.0801 88.5854 35.0045 88.8757 35.0045C89.178 35.0045 89.429 35.0842 89.6285 35.2437C89.8302 35.4009 89.9804 35.6151 90.079 35.8863C90.1799 36.1553 90.2303 36.4576 90.2303 36.7928C90.2303 37.1323 90.1788 37.4406 90.0761 37.7181ZM89.9944 34.6475C89.6961 34.4467 89.3514 34.3463 88.9603 34.3463C88.658 34.3463 88.418 34.3981 88.2407 34.5016C88.0653 34.6031 87.9302 34.7188 87.8355 34.8493C87.7428 34.9776 87.6702 35.0832 87.6178 35.166H87.5332V34.4084H86.8438V40.9655H87.5573V38.4445H87.6178C87.6702 38.5314 87.7448 38.6412 87.8416 38.7736C87.9383 38.904 88.0764 39.021 88.2558 39.1245C88.4353 39.2258 88.6741 39.2766 88.9724 39.2766C89.3595 39.2766 89.7011 39.1763 89.9975 38.9755C90.2938 38.7727 90.5256 38.487 90.6929 38.1186C90.8603 37.7481 90.9439 37.3103 90.9439 36.8052C90.9439 36.3043 90.8603 35.8697 90.6929 35.5012C90.5256 35.1329 90.2928 34.8482 89.9944 34.6475Z" fill="#2D2D2D"/>
</g>
<mask id="mask38_5380_13579" style="mask-type:luminance" maskUnits="userSpaceOnUse" x="0" y="0" width="210" height="41">
<path d="M0 -1.30236e-05H210V41H0V-1.30236e-05Z" fill="white"/>
</mask>
<g mask="url(#mask38_5380_13579)">
<path d="M84.8277 37.451C84.8277 37.6497 84.7773 37.839 84.6765 38.0191C84.5778 38.1992 84.4305 38.3462 84.235 38.46C84.0415 38.5739 83.8037 38.6309 83.5214 38.6309C83.2372 38.6309 83.0023 38.5667 82.817 38.4382C82.6335 38.3079 82.5417 38.1154 82.5417 37.8608C82.5417 37.6745 82.5901 37.5277 82.6868 37.4199C82.7857 37.3103 82.9147 37.2285 83.0739 37.1747C83.2352 37.1188 83.4085 37.0784 83.594 37.0536C83.6706 37.0433 83.7704 37.0309 83.8934 37.0163C84.0183 36.9998 84.1464 36.9812 84.2774 36.9605C84.4103 36.9377 84.5273 36.9118 84.6282 36.8828C84.7308 36.8518 84.7974 36.8177 84.8277 36.7804V37.451ZM84.9033 34.6227C84.7218 34.5108 84.5333 34.4374 84.3378 34.4023C84.1444 34.3649 83.973 34.3463 83.8239 34.3463C83.59 34.3463 83.3521 34.3794 83.1103 34.4457C82.8703 34.5099 82.6486 34.6237 82.445 34.7872C82.2433 34.9486 82.0822 35.1742 81.9612 35.464L82.6385 35.7124C82.7171 35.5386 82.8532 35.375 83.0467 35.2219C83.2403 35.0688 83.5073 34.9921 83.848 34.9921C84.1766 34.9921 84.4215 35.0769 84.5828 35.2466C84.746 35.4164 84.8277 35.6545 84.8277 35.9608V35.9856C84.8277 36.1036 84.7863 36.1864 84.7037 36.2339C84.6231 36.2816 84.4941 36.3158 84.3167 36.3365C84.1413 36.355 83.9125 36.3831 83.6303 36.4203C83.4146 36.4493 83.2 36.4885 82.9862 36.5382C82.7745 36.5859 82.5811 36.6584 82.4057 36.7556C82.2303 36.8529 82.0903 36.9874 81.9853 37.1592C81.8805 37.3289 81.8281 37.5504 81.8281 37.8235C81.8281 38.1341 81.8987 38.399 82.0398 38.6183C82.1809 38.8357 82.3714 39.0023 82.6113 39.1182C82.8512 39.2321 83.1182 39.289 83.4126 39.289C83.6827 39.289 83.9115 39.2476 84.099 39.1648C84.2864 39.082 84.4366 38.9816 84.5495 38.8636C84.6624 38.7457 84.7431 38.6349 84.7913 38.5314H84.8277V39.1772H85.5413V36.0353C85.5413 35.6565 85.4808 35.3543 85.3598 35.1287C85.2389 34.9031 85.0868 34.7344 84.9033 34.6227Z" fill="#2D2D2D"/>
</g>
<mask id="mask39_5380_13579" style="mask-type:luminance" maskUnits="userSpaceOnUse" x="0" y="0" width="210" height="41">
<path d="M0 -5.39422e-06H210V41H0V-5.39422e-06Z" fill="white"/>
</mask>
<g mask="url(#mask39_5380_13579)">
<path d="M79.1885 38.2087H79.1402L77.8581 34.4085H77.084L78.8015 39.2023L78.6685 39.5748C78.5817 39.817 78.4861 39.9919 78.3813 40.0995C78.2785 40.2092 78.1605 40.2702 78.0275 40.2827C77.8944 40.2951 77.7412 40.2785 77.5678 40.233L77.3864 40.8788C77.4227 40.8974 77.4882 40.916 77.5829 40.9346C77.6776 40.9553 77.7855 40.9657 77.9065 40.9657C78.1222 40.9657 78.3157 40.9263 78.487 40.8477C78.6604 40.7691 78.8125 40.648 78.9436 40.4844C79.0747 40.323 79.1845 40.1191 79.2731 39.8728L81.2447 34.4085H80.4706L79.1885 38.2087Z" fill="#2D2D2D"/>
</g>
<mask id="mask40_5380_13579" style="mask-type:luminance" maskUnits="userSpaceOnUse" x="0" y="0" width="210" height="41">
<path d="M0 -5.39422e-06H210V41H0V-5.39422e-06Z" fill="white"/>
</mask>
<g mask="url(#mask40_5380_13579)">
<path d="M73.8454 35.2281C74.055 35.079 74.299 35.0045 74.5772 35.0045C74.8916 35.0045 75.1415 35.0893 75.327 35.2591C75.5144 35.4267 75.6354 35.6192 75.6898 35.8366H76.4034C76.3632 35.5386 76.2593 35.2777 76.092 35.0542C75.9247 34.8307 75.7099 34.6569 75.4479 34.5326C75.1859 34.4084 74.8916 34.3463 74.565 34.3463C74.1458 34.3463 73.7788 34.4519 73.4644 34.663C73.1519 34.8721 72.908 35.1629 72.7327 35.5354C72.5593 35.9059 72.4727 36.3334 72.4727 36.8177C72.4727 37.2937 72.5573 37.717 72.7266 38.0875C72.896 38.458 73.1378 38.7488 73.4523 38.9599C73.7667 39.1711 74.1416 39.2766 74.5772 39.2766C74.9198 39.2766 75.2202 39.2114 75.4782 39.081C75.7382 38.9485 75.9469 38.7705 76.1041 38.547C76.2633 38.3214 76.3632 38.0679 76.4034 37.7863H75.6898C75.6455 37.9601 75.5709 38.1092 75.4661 38.2334C75.3613 38.3576 75.2333 38.4528 75.0821 38.519C74.9308 38.5852 74.7626 38.6183 74.5772 38.6183C74.2949 38.6183 74.0489 38.5429 73.8393 38.3918C73.6317 38.2406 73.4704 38.0285 73.3555 37.7553C73.2426 37.482 73.1862 37.1613 73.1862 36.7928C73.1862 36.4327 73.2437 36.1191 73.3586 35.8521C73.4754 35.5831 73.6378 35.375 73.8454 35.2281Z" fill="#2D2D2D"/>
</g>
<mask id="mask41_5380_13579" style="mask-type:luminance" maskUnits="userSpaceOnUse" x="0" y="0" width="210" height="41">
<path d="M0 -5.39422e-06H210V41H0V-5.39422e-06Z" fill="white"/>
</mask>
<g mask="url(#mask41_5380_13579)">
<path d="M69.0896 35.2281C69.2992 35.079 69.5431 35.0045 69.8213 35.0045C70.1357 35.0045 70.3858 35.0893 70.5712 35.259C70.7587 35.4267 70.8797 35.6192 70.9341 35.8366H71.6476C71.6073 35.5386 71.5034 35.2777 71.3361 35.0542C71.1689 34.8307 70.9542 34.6568 70.6921 34.5326C70.4301 34.4084 70.1357 34.3463 69.8092 34.3463C69.3899 34.3463 69.0231 34.4518 68.7086 34.663C68.3961 34.8721 68.1522 35.1629 67.9768 35.5354C67.8034 35.9059 67.7168 36.3334 67.7168 36.8177C67.7168 37.2937 67.8014 37.717 67.9708 38.0875C68.1401 38.458 68.3821 38.7488 68.6965 38.9599C69.0109 39.1711 69.3859 39.2766 69.8213 39.2766C70.164 39.2766 70.4643 39.2114 70.7223 39.081C70.9823 38.9485 71.191 38.7705 71.3482 38.5469C71.5075 38.3214 71.6073 38.0679 71.6476 37.7863H70.9341C70.8897 37.9601 70.8151 38.1092 70.7103 38.2334C70.6055 38.3576 70.4774 38.4528 70.3262 38.519C70.1751 38.5852 70.0068 38.6183 69.8213 38.6183C69.5391 38.6183 69.2932 38.5429 69.0836 38.3918C68.8758 38.2406 68.7147 38.0285 68.5998 37.7553C68.4869 37.482 68.4304 37.1613 68.4304 36.7928C68.4304 36.4327 68.4878 36.1191 68.6027 35.8521C68.7197 35.5831 68.8819 35.375 69.0896 35.2281Z" fill="#2D2D2D"/>
</g>
<mask id="mask42_5380_13579" style="mask-type:luminance" maskUnits="userSpaceOnUse" x="0" y="0" width="210" height="41">
<path d="M0 -1.30236e-05H210V41H0V-1.30236e-05Z" fill="white"/>
</mask>
<g mask="url(#mask42_5380_13579)">
<path d="M63.4813 36.4079C63.4949 36.1869 63.5467 35.9773 63.6415 35.7807C63.7524 35.5509 63.9107 35.3646 64.1163 35.2219C64.3239 35.0769 64.5699 35.0045 64.854 35.0045C65.112 35.0045 65.3358 35.0656 65.5253 35.1877C65.7168 35.3099 65.864 35.4764 65.9668 35.6876C66.0716 35.8987 66.124 36.1387 66.124 36.4079H63.4813ZM66.2147 34.8741C66.0212 34.6879 65.8065 34.5533 65.5707 34.4705C65.3348 34.3877 65.096 34.3463 64.854 34.3463C64.4348 34.3463 64.0679 34.4518 63.7535 34.663C63.4409 34.8721 63.1971 35.1638 63.0217 35.5386C62.8483 35.9111 62.7617 36.3417 62.7617 36.8301C62.7617 37.3186 62.8483 37.747 63.0217 38.1154C63.1971 38.4818 63.446 38.7675 63.7686 38.9723C64.0931 39.1752 64.4791 39.2766 64.9266 39.2766C65.2411 39.2766 65.5244 39.2269 65.7763 39.1276C66.0283 39.0261 66.2399 38.8854 66.4113 38.7054C66.5826 38.5231 66.7046 38.3121 66.7772 38.072L66.0878 37.8732C66.0273 38.0389 65.9416 38.1775 65.8308 38.2892C65.7199 38.399 65.5878 38.4818 65.4347 38.5377C65.2834 38.5915 65.1142 38.6183 64.9266 38.6183C64.6385 38.6183 64.3853 38.5542 64.1676 38.4259C63.9499 38.2955 63.7796 38.1062 63.6566 37.8577C63.5473 37.6313 63.4902 37.3574 63.4797 37.0412H66.8498V36.7307C66.8498 36.2857 66.7923 35.9111 66.6774 35.6068C66.5624 35.3026 66.4083 35.0584 66.2147 34.8741Z" fill="#2D2D2D"/>
</g>
<mask id="mask43_5380_13579" style="mask-type:luminance" maskUnits="userSpaceOnUse" x="0" y="0" width="210" height="41">
<path d="M0 -5.39422e-06H210V41H0V-5.39422e-06Z" fill="white"/>
</mask>
<g mask="url(#mask43_5380_13579)">
<path d="M59.3767 35.2281C59.5863 35.079 59.8302 35.0045 60.1084 35.0045C60.423 35.0045 60.6729 35.0893 60.8583 35.2591C61.0458 35.4267 61.1668 35.6192 61.2212 35.8366H61.9347C61.8944 35.5386 61.7907 35.2777 61.6233 35.0542C61.456 34.8307 61.2413 34.6569 60.9792 34.5326C60.7172 34.4084 60.423 34.3463 60.0963 34.3463C59.677 34.3463 59.3102 34.4519 58.9957 34.663C58.6833 34.8721 58.4393 35.1629 58.2639 35.5354C58.0907 35.9059 58.0039 36.3334 58.0039 36.8177C58.0039 37.2937 58.0885 37.717 58.2579 38.0875C58.4272 38.458 58.6692 38.7488 58.9836 38.9599C59.2981 39.1711 59.673 39.2766 60.1084 39.2766C60.4511 39.2766 60.7514 39.2114 61.0094 39.081C61.2696 38.9485 61.4781 38.7705 61.6355 38.547C61.7947 38.3214 61.8944 38.0679 61.9347 37.7863H61.2212C61.1769 37.9601 61.1022 38.1092 60.9974 38.2334C60.8926 38.3576 60.7645 38.4528 60.6133 38.519C60.4622 38.5852 60.2939 38.6183 60.1084 38.6183C59.8262 38.6183 59.5803 38.5429 59.3707 38.3918C59.163 38.2406 59.0018 38.0285 58.8869 37.7553C58.774 37.482 58.7175 37.1613 58.7175 36.7928C58.7175 36.4327 58.7749 36.1191 58.8898 35.8521C59.0068 35.5831 59.1691 35.375 59.3767 35.2281Z" fill="#2D2D2D"/>
</g>
<mask id="mask44_5380_13579" style="mask-type:luminance" maskUnits="userSpaceOnUse" x="0" y="0" width="210" height="41">
<path d="M0 -5.39422e-06H210V41H0V-5.39422e-06Z" fill="white"/>
</mask>
<g mask="url(#mask44_5380_13579)">
<path d="M57.6133 34.4085H56.6941L55.025 36.4825H54.5534V34.4085H53.8398V39.1773H54.5534V37.1656H55.1944L56.7183 39.1773H57.6376L55.7387 36.706L57.6133 34.4085Z" fill="#2D2D2D"/>
</g>
<mask id="mask45_5380_13579" style="mask-type:luminance" maskUnits="userSpaceOnUse" x="0" y="0" width="210" height="41">
<path d="M0 -1.30236e-05H210V41H0V-1.30236e-05Z" fill="white"/>
</mask>
<g mask="url(#mask45_5380_13579)">
<path d="M51.8238 37.451C51.8238 37.6497 51.7734 37.839 51.6726 38.0191C51.5737 38.1992 51.4266 38.3462 51.2311 38.46C51.0375 38.5739 50.7997 38.6309 50.5175 38.6309C50.2332 38.6309 49.9984 38.5667 49.8129 38.4382C49.6295 38.3079 49.5378 38.1154 49.5378 37.8608C49.5378 37.6745 49.5862 37.5277 49.6829 37.4199C49.7818 37.3103 49.9107 37.2285 50.07 37.1747C50.2312 37.1188 50.4046 37.0784 50.59 37.0536C50.6666 37.0433 50.7665 37.0309 50.8895 37.0163C51.0144 36.9998 51.1424 36.9812 51.2734 36.9605C51.4064 36.9377 51.5233 36.9118 51.6241 36.8828C51.7269 36.8518 51.7935 36.8177 51.8238 36.7804V37.451ZM51.8993 34.6227C51.7179 34.5108 51.5294 34.4374 51.3339 34.4023C51.1403 34.3649 50.9691 34.3463 50.8198 34.3463C50.5861 34.3463 50.3482 34.3794 50.1062 34.4457C49.8664 34.5099 49.6446 34.6237 49.4411 34.7872C49.2394 34.9486 49.0783 35.1742 48.9573 35.464L49.6345 35.7124C49.7132 35.5386 49.8493 35.375 50.0428 35.2219C50.2362 35.0688 50.5034 34.9921 50.8441 34.9921C51.1726 34.9921 51.4176 35.0769 51.5788 35.2466C51.7421 35.4164 51.8238 35.6545 51.8238 35.9608V35.9856C51.8238 36.1036 51.7824 36.1864 51.6997 36.2339C51.6191 36.2816 51.4901 36.3158 51.3128 36.3365C51.1374 36.355 50.9086 36.3831 50.6264 36.4203C50.4107 36.4493 50.1959 36.4885 49.9823 36.5382C49.7706 36.5859 49.5771 36.6584 49.4017 36.7556C49.2263 36.8529 49.0862 36.9874 48.9814 37.1592C48.8766 37.3289 48.8242 37.5504 48.8242 37.8235C48.8242 38.1341 48.8948 38.399 49.0358 38.6183C49.177 38.8357 49.3675 39.0023 49.6073 39.1182C49.8473 39.2321 50.1143 39.289 50.4086 39.289C50.6788 39.289 50.9075 39.2476 51.095 39.1648C51.2825 39.082 51.4327 38.9816 51.5456 38.8636C51.6585 38.7457 51.739 38.6349 51.7874 38.5314H51.8238V39.1772H52.5374V36.0353C52.5374 35.6565 52.4769 35.3543 52.3559 35.1287C52.2349 34.9031 52.0827 34.7344 51.8993 34.6227Z" fill="#2D2D2D"/>
</g>
<mask id="mask46_5380_13579" style="mask-type:luminance" maskUnits="userSpaceOnUse" x="0" y="0" width="210" height="41">
<path d="M0 -5.39422e-06H210V41H0V-5.39422e-06Z" fill="white"/>
</mask>
<g mask="url(#mask46_5380_13579)">
<path d="M42.28 38.0969V34.4085H41.5664V39.1773H42.401L44.6263 35.489V39.1773H45.34V34.4085H44.5175L42.28 38.0969Z" fill="#2D2D2D"/>
</g>
<mask id="mask47_5380_13579" style="mask-type:luminance" maskUnits="userSpaceOnUse" x="0" y="0" width="210" height="41">
<path d="M0 -5.39422e-06H210V41H0V-5.39422e-06Z" fill="white"/>
</mask>
<g mask="url(#mask47_5380_13579)">
<path d="M34.8054 38.0969V34.4085H34.0918V39.1773H34.9264L37.1519 35.489V39.1773H37.8654V34.4085H37.0429L34.8054 38.0969Z" fill="#2D2D2D"/>
</g>
<mask id="mask48_5380_13579" style="mask-type:luminance" maskUnits="userSpaceOnUse" x="0" y="0" width="210" height="41">
<path d="M0 -5.39422e-06H210V41H0V-5.39422e-06Z" fill="white"/>
</mask>
<g mask="url(#mask48_5380_13579)">
<path d="M29.2773 35.0916H30.8134V39.1773H31.527V35.0916H33.051V34.4085H29.2773V35.0916Z" fill="#2D2D2D"/>
</g>
<mask id="mask49_5380_13579" style="mask-type:luminance" maskUnits="userSpaceOnUse" x="0" y="0" width="210" height="41">
<path d="M0 -5.39422e-06H210V41H0V-5.39422e-06Z" fill="white"/>
</mask>
<g mask="url(#mask49_5380_13579)">
<path d="M26.0407 35.2281C26.2503 35.079 26.4943 35.0045 26.7725 35.0045C27.0869 35.0045 27.3369 35.0893 27.5224 35.259C27.7099 35.4267 27.8307 35.6192 27.8852 35.8366H28.5988C28.5585 35.5386 28.4546 35.2777 28.2873 35.0542C28.12 34.8307 27.9054 34.6568 27.6433 34.5326C27.3813 34.4084 27.0869 34.3463 26.7604 34.3463C26.3411 34.3463 25.9743 34.4518 25.6597 34.663C25.3473 34.8721 25.1034 35.1629 24.928 35.5354C24.7546 35.9059 24.668 36.3334 24.668 36.8177C24.668 37.2937 24.7526 37.717 24.922 38.0875C25.0913 38.458 25.3333 38.7488 25.6477 38.9599C25.9621 39.1711 26.3371 39.2766 26.7725 39.2766C27.1151 39.2766 27.4155 39.2114 27.6735 39.081C27.9335 38.9485 28.1422 38.7705 28.2994 38.5469C28.4587 38.3214 28.5585 38.0679 28.5988 37.7863H27.8852C27.8408 37.9601 27.7662 38.1092 27.6614 38.2334C27.5566 38.3576 27.4286 38.4528 27.2774 38.519C27.1263 38.5852 26.9579 38.6183 26.7725 38.6183C26.4903 38.6183 26.2444 38.5429 26.0346 38.3918C25.827 38.2406 25.6658 38.0285 25.551 37.7553C25.4381 37.482 25.3815 37.1613 25.3815 36.7928C25.3815 36.4327 25.439 36.1191 25.5539 35.8521C25.6709 35.5831 25.8331 35.375 26.0407 35.2281Z" fill="#2D2D2D"/>
</g>
<mask id="mask50_5380_13579" style="mask-type:luminance" maskUnits="userSpaceOnUse" x="0" y="0" width="210" height="41">
<path d="M0 -1.30236e-05H210V41H0V-1.30236e-05Z" fill="white"/>
</mask>
<g mask="url(#mask50_5380_13579)">
<path d="M22.8707 37.451C22.8707 37.6497 22.8202 37.839 22.7194 38.0191C22.6206 38.1992 22.4735 38.3462 22.2779 38.46C22.0844 38.5739 21.8465 38.6309 21.5644 38.6309C21.2802 38.6309 21.0453 38.5667 20.8598 38.4382C20.6765 38.3079 20.5847 38.1154 20.5847 37.8608C20.5847 37.6745 20.6331 37.5277 20.7298 37.4199C20.8286 37.3103 20.9576 37.2285 21.1169 37.1747C21.2781 37.1188 21.4515 37.0784 21.6369 37.0536C21.7136 37.0433 21.8134 37.0309 21.9363 37.0163C22.0613 36.9998 22.1893 36.9812 22.3203 36.9605C22.4533 36.9377 22.5703 36.9118 22.671 36.8828C22.7738 36.8518 22.8404 36.8177 22.8707 36.7804V37.451ZM22.9461 34.6227C22.7648 34.5108 22.5763 34.4374 22.3807 34.4023C22.1872 34.3649 22.0159 34.3463 21.8667 34.3463C21.6329 34.3463 21.3951 34.3794 21.1531 34.4457C20.9133 34.5099 20.6916 34.6237 20.488 34.7872C20.2863 34.9486 20.1251 35.1742 20.0042 35.464L20.6815 35.7124C20.76 35.5386 20.8962 35.375 21.0897 35.2219C21.2831 35.0688 21.5503 34.9921 21.891 34.9921C22.2196 34.9921 22.4645 35.0769 22.6256 35.2466C22.7889 35.4164 22.8707 35.6545 22.8707 35.9608V35.9856C22.8707 36.1036 22.8293 36.1864 22.7466 36.2339C22.666 36.2816 22.537 36.3158 22.3597 36.3365C22.1843 36.355 21.9554 36.3831 21.6733 36.4203C21.4576 36.4493 21.2428 36.4885 21.0292 36.5382C20.8175 36.5859 20.6239 36.6584 20.4487 36.7556C20.2733 36.8529 20.1331 36.9874 20.0283 37.1592C19.9235 37.3289 19.8711 37.5504 19.8711 37.8235C19.8711 38.1341 19.9417 38.399 20.0828 38.6183C20.2238 38.8357 20.4143 39.0023 20.6542 39.1182C20.8942 39.2321 21.1612 39.289 21.4556 39.289C21.7257 39.289 21.9544 39.2476 22.142 39.1648C22.3294 39.082 22.4796 38.9816 22.5925 38.8636C22.7054 38.7457 22.7859 38.6349 22.8343 38.5314H22.8707V39.1772H23.5842V36.0353C23.5842 35.6565 23.5237 35.3543 23.4028 35.1287C23.2819 34.9031 23.1296 34.7344 22.9461 34.6227Z" fill="#2D2D2D"/>
</g>
<mask id="mask51_5380_13579" style="mask-type:luminance" maskUnits="userSpaceOnUse" x="0" y="0" width="210" height="41">
<path d="M0 -1.30236e-05H210V41H0V-1.30236e-05Z" fill="white"/>
</mask>
<g mask="url(#mask51_5380_13579)">
<path d="M18.0657 36.8251C17.9638 36.855 17.862 36.8839 17.7603 36.9077C17.5164 36.9636 17.2432 36.9915 16.9409 36.9915C16.7474 36.9915 16.573 36.9532 16.4178 36.8767C16.2626 36.8001 16.1396 36.6831 16.0489 36.5259C15.9582 36.3686 15.9128 36.1678 15.9128 35.9236V34.3961H15.1992V35.9236C15.1992 36.5073 15.3575 36.9451 15.674 37.2368C15.9925 37.5287 16.4148 37.6746 16.9409 37.6746C17.1505 37.6746 17.343 37.6622 17.5184 37.6373C17.6937 37.6105 17.8612 37.5742 18.0204 37.5287C18.0355 37.5242 18.0506 37.5188 18.0657 37.5142V39.1773H18.7793V34.4085H18.0657V36.8251Z" fill="#2D2D2D"/>
</g>
<mask id="mask52_5380_13579" style="mask-type:luminance" maskUnits="userSpaceOnUse" x="0" y="0" width="210" height="41">
<path d="M0 -1.30236e-05H210V41H0V-1.30236e-05Z" fill="white"/>
</mask>
<g mask="url(#mask52_5380_13579)">
<path d="M10.2422 39.1773H10.9558V35.0916H13.1813V39.1773H13.8948V34.4085H10.2422V39.1773Z" fill="#2D2D2D"/>
</g>
<mask id="mask53_5380_13579" style="mask-type:luminance" maskUnits="userSpaceOnUse" x="0" y="0" width="210" height="41">
<path d="M0 -1.30236e-05H210V41H0V-1.30236e-05Z" fill="white"/>
</mask>
<g mask="url(#mask53_5380_13579)">
<path d="M8.22808 37.451C8.22808 37.6497 8.17767 37.839 8.07685 38.0191C7.97815 38.1992 7.8309 38.3462 7.63549 38.46C7.44194 38.5739 7.20408 38.6309 6.92178 38.6309C6.63762 38.6309 6.40282 38.5667 6.21736 38.4382C6.03389 38.3079 5.94209 38.1154 5.94209 37.8608C5.94209 37.6745 5.99051 37.5277 6.08735 37.4199C6.18605 37.3103 6.31513 37.2285 6.47432 37.1747C6.63564 37.1188 6.80889 37.0784 6.99435 37.0536C7.07102 37.0433 7.17078 37.0309 7.29376 37.0163C7.41872 36.9998 7.54674 36.9812 7.67781 36.9605C7.81073 36.9377 7.92774 36.9118 8.02856 36.8828C8.13137 36.8518 8.19783 36.8177 8.22808 36.7804V37.451ZM8.3037 34.6227C8.12222 34.5108 7.93371 34.4374 7.73817 34.4023C7.54475 34.3649 7.37335 34.3463 7.22425 34.3463C6.99037 34.3463 6.75251 34.3794 6.51067 34.4457C6.27069 34.5099 6.04901 34.6237 5.84538 34.7872C5.64387 34.9486 5.48256 35.1742 5.36157 35.464L6.03893 35.7124C6.1176 35.5386 6.25358 35.375 6.44713 35.2219C6.64068 35.0688 6.90772 34.9921 7.24839 34.9921C7.57699 34.9921 7.82188 35.0769 7.98319 35.2466C8.14649 35.4164 8.22808 35.6545 8.22808 35.9608V35.9856C8.22808 36.1036 8.18669 36.1864 8.10404 36.2339C8.02352 36.2816 7.89444 36.3158 7.71708 36.3365C7.5417 36.355 7.31286 36.3831 7.0307 36.4203C6.81499 36.4493 6.60035 36.4885 6.38663 36.5382C6.17504 36.5859 5.98149 36.6584 5.80612 36.7556C5.63074 36.8529 5.49065 36.9874 5.38585 37.1592C5.28092 37.3289 5.22852 37.5504 5.22852 37.8235C5.22852 38.1341 5.29909 38.399 5.44024 38.6183C5.58126 38.8357 5.77176 39.0023 6.01174 39.1182C6.25159 39.2321 6.51863 39.289 6.813 39.289C7.0831 39.289 7.31193 39.2476 7.49938 39.1648C7.68683 39.082 7.837 38.9816 7.94989 38.8636C8.06279 38.7457 8.14344 38.6349 8.19186 38.5314H8.22808V39.1772H8.94166V36.0353C8.94166 35.6565 8.88116 35.3543 8.76018 35.1287C8.63932 34.9031 8.48716 34.7344 8.3037 34.6227Z" fill="#2D2D2D"/>
</g>
<mask id="mask54_5380_13579" style="mask-type:luminance" maskUnits="userSpaceOnUse" x="0" y="0" width="210" height="41">
<path d="M0 -1.30236e-05H210V41H0V-1.30236e-05Z" fill="white"/>
</mask>
<g mask="url(#mask54_5380_13579)">
<path d="M2.95114 35.9236V35.8739C3.26356 35.7767 3.51057 35.6018 3.69191 35.3492C3.87538 35.0967 3.96718 34.7914 3.96718 34.4333C3.96718 34.1333 3.89356 33.8539 3.74644 33.5951C3.59919 33.3364 3.38852 33.1284 3.11445 32.9711C2.84024 32.8117 2.51164 32.732 2.12865 32.732C1.77193 32.732 1.44426 32.8023 1.14605 32.9432C0.849684 33.0839 0.609836 33.2806 0.426368 33.533C0.2429 33.7835 0.14513 34.0754 0.133058 34.4085H0.858705C0.868787 34.1974 0.93326 34.0173 1.05226 33.8683C1.17125 33.7173 1.32434 33.6023 1.51192 33.5237C1.70136 33.4429 1.903 33.4026 2.11658 33.4026C2.34436 33.4026 2.54189 33.4471 2.70931 33.5361C2.87858 33.6252 3.00965 33.7493 3.10238 33.9086C3.1951 34.068 3.2414 34.2554 3.2414 34.4706C3.2414 34.6942 3.18794 34.8887 3.08115 35.0543C2.97635 35.22 2.83016 35.3483 2.64271 35.4393C2.45725 35.5304 2.24155 35.5759 1.9956 35.5759H1.49972V36.259H1.9956C2.31013 36.259 2.57625 36.3097 2.79394 36.411C3.01164 36.5125 3.17693 36.6532 3.28982 36.8333C3.40272 37.0113 3.4591 37.2172 3.4591 37.4511C3.4591 37.6746 3.40073 37.8713 3.28372 38.0411C3.16685 38.2108 3.00553 38.3432 2.79991 38.4384C2.59429 38.5336 2.35855 38.5813 2.09244 38.5813C1.85458 38.5813 1.63781 38.5408 1.44227 38.4602C1.24673 38.3794 1.0886 38.2655 0.967619 38.1187C0.846633 37.9697 0.778181 37.7926 0.761996 37.5877H0C0.0161845 37.9209 0.114883 38.2139 0.296361 38.4663C0.47983 38.7168 0.726709 38.9124 1.03713 39.0531C1.34955 39.194 1.70534 39.2642 2.10451 39.2642C2.50567 39.2642 2.86346 39.1856 3.17786 39.0283C3.49239 38.871 3.74033 38.6558 3.92181 38.3825C4.10515 38.1073 4.19695 37.7968 4.19695 37.4511C4.19695 37.0475 4.08711 36.7092 3.86729 36.4359C3.64761 36.1606 3.34222 35.9898 2.95114 35.9236Z" fill="#2D2D2D"/>
</g>
</g>
<defs>
<clipPath id="clip0_5380_13579">
<rect width="210" height="41" fill="white"/>
</clipPath>
</defs>
</svg>
